<mxfile host="app.diagrams.net" modified="2023-04-06T20:06:40.658Z" agent="Mozilla/5.0 (Windows NT 10.0; Win64; x64) AppleWebKit/537.36 (KHTML, like Gecko) Chrome/112.0.0.0 Safari/537.36" etag="kACHNmkj9d4ZKs5O4Wjf" version="21.1.4" type="github">
  <diagram id="C5RBs43oDa-KdzZeNtuy" name="Page-1">
    <mxGraphModel dx="1050" dy="558" grid="1" gridSize="10" guides="1" tooltips="1" connect="1" arrows="1" fold="1" page="1" pageScale="1" pageWidth="827" pageHeight="1169" math="0" shadow="0">
      <root>
        <mxCell id="WIyWlLk6GJQsqaUBKTNV-0" />
        <mxCell id="WIyWlLk6GJQsqaUBKTNV-1" parent="WIyWlLk6GJQsqaUBKTNV-0" />
        <mxCell id="-Z8fcexckgJn7ujzZ2Ft-0" value="&#xa;&lt;b id=&quot;docs-internal-guid-81e7ec77-7fff-8a62-a631-0a5c4abc258c&quot; style=&quot;font-weight:normal;&quot;&gt;&lt;img src=&quot;https://lh6.googleusercontent.com/EI0MRk0nzkvpMwtFPFXoAt7pnuFs0Gu7lzOpw3dwjhvq_D6r6BR9Ah21X3YqFXRrCR4iKXEn59H-Iu3LHncwuWP9FxuJ--4_uWrT4gUF58XK2E_7dLZ4A3icM2lVJHEgxqWy_rC7nlZeSfNST37TVTD9dA=s2048&quot; height=&quot;36px;&quot; width=&quot;36px;&quot;&gt;&lt;/b&gt;&#xa;&#xa;" style="rounded=0;whiteSpace=wrap;html=1;" vertex="1" parent="WIyWlLk6GJQsqaUBKTNV-1">
          <mxGeometry x="40" y="190" width="940" height="420" as="geometry" />
        </mxCell>
        <mxCell id="-Z8fcexckgJn7ujzZ2Ft-1" value="" style="rounded=0;whiteSpace=wrap;html=1;" vertex="1" parent="WIyWlLk6GJQsqaUBKTNV-1">
          <mxGeometry x="70" y="300" width="250" height="280" as="geometry" />
        </mxCell>
        <mxCell id="-Z8fcexckgJn7ujzZ2Ft-2" value="" style="rounded=0;whiteSpace=wrap;html=1;" vertex="1" parent="WIyWlLk6GJQsqaUBKTNV-1">
          <mxGeometry x="330" y="300" width="360" height="280" as="geometry" />
        </mxCell>
        <mxCell id="-Z8fcexckgJn7ujzZ2Ft-4" value="" style="rounded=0;whiteSpace=wrap;html=1;" vertex="1" parent="WIyWlLk6GJQsqaUBKTNV-1">
          <mxGeometry x="700" y="300" width="250" height="280" as="geometry" />
        </mxCell>
        <mxCell id="-Z8fcexckgJn7ujzZ2Ft-6" value="" style="whiteSpace=wrap;html=1;aspect=fixed;fillColor=#e1d5e7;strokeColor=#9673a6;" vertex="1" parent="WIyWlLk6GJQsqaUBKTNV-1">
          <mxGeometry x="105" y="370" width="180" height="180" as="geometry" />
        </mxCell>
        <mxCell id="-Z8fcexckgJn7ujzZ2Ft-8" value="" style="rounded=0;whiteSpace=wrap;html=1;fillColor=#fff2cc;strokeColor=#d6b656;" vertex="1" parent="WIyWlLk6GJQsqaUBKTNV-1">
          <mxGeometry x="127.5" y="410" width="135" height="35" as="geometry" />
        </mxCell>
        <mxCell id="-Z8fcexckgJn7ujzZ2Ft-9" value="" style="rounded=0;whiteSpace=wrap;html=1;fillColor=#fff2cc;strokeColor=#d6b656;" vertex="1" parent="WIyWlLk6GJQsqaUBKTNV-1">
          <mxGeometry x="127.5" y="480" width="135" height="35" as="geometry" />
        </mxCell>
        <mxCell id="-Z8fcexckgJn7ujzZ2Ft-10" value="&lt;font style=&quot;font-size: 10px;&quot;&gt;US-Central-1-a&lt;/font&gt;" style="text;html=1;strokeColor=none;fillColor=none;align=center;verticalAlign=middle;whiteSpace=wrap;rounded=0;" vertex="1" parent="WIyWlLk6GJQsqaUBKTNV-1">
          <mxGeometry x="120" y="370" width="90" height="30" as="geometry" />
        </mxCell>
        <mxCell id="-Z8fcexckgJn7ujzZ2Ft-12" value="" style="rounded=0;whiteSpace=wrap;html=1;fillColor=#e1d5e7;strokeColor=#9673a6;" vertex="1" parent="WIyWlLk6GJQsqaUBKTNV-1">
          <mxGeometry x="340" y="370" width="100" height="190" as="geometry" />
        </mxCell>
        <mxCell id="-Z8fcexckgJn7ujzZ2Ft-13" value="" style="rounded=0;whiteSpace=wrap;html=1;fillColor=#e1d5e7;strokeColor=#9673a6;" vertex="1" parent="WIyWlLk6GJQsqaUBKTNV-1">
          <mxGeometry x="450" y="370" width="110" height="190" as="geometry" />
        </mxCell>
        <mxCell id="-Z8fcexckgJn7ujzZ2Ft-14" value="" style="rounded=0;whiteSpace=wrap;html=1;fillColor=#e1d5e7;strokeColor=#9673a6;" vertex="1" parent="WIyWlLk6GJQsqaUBKTNV-1">
          <mxGeometry x="570" y="370" width="110" height="190" as="geometry" />
        </mxCell>
        <mxCell id="-Z8fcexckgJn7ujzZ2Ft-15" value="" style="rounded=0;whiteSpace=wrap;html=1;fillColor=#fff2cc;strokeColor=#d6b656;" vertex="1" parent="WIyWlLk6GJQsqaUBKTNV-1">
          <mxGeometry x="370" y="410" width="290" height="35" as="geometry" />
        </mxCell>
        <mxCell id="-Z8fcexckgJn7ujzZ2Ft-16" value="" style="rounded=0;whiteSpace=wrap;html=1;fillColor=#fff2cc;strokeColor=#d6b656;" vertex="1" parent="WIyWlLk6GJQsqaUBKTNV-1">
          <mxGeometry x="370" y="480" width="290" height="35" as="geometry" />
        </mxCell>
        <mxCell id="-Z8fcexckgJn7ujzZ2Ft-17" value="" style="whiteSpace=wrap;html=1;aspect=fixed;fillColor=#e1d5e7;strokeColor=#9673a6;" vertex="1" parent="WIyWlLk6GJQsqaUBKTNV-1">
          <mxGeometry x="735" y="370" width="180" height="180" as="geometry" />
        </mxCell>
        <mxCell id="-Z8fcexckgJn7ujzZ2Ft-22" value="" style="whiteSpace=wrap;html=1;aspect=fixed;fillColor=#e1d5e7;strokeColor=#9673a6;" vertex="1" parent="WIyWlLk6GJQsqaUBKTNV-1">
          <mxGeometry x="1280" y="370" width="180" height="180" as="geometry" />
        </mxCell>
        <mxCell id="-Z8fcexckgJn7ujzZ2Ft-23" value="" style="rounded=0;whiteSpace=wrap;html=1;fillColor=#fff2cc;strokeColor=#d6b656;" vertex="1" parent="WIyWlLk6GJQsqaUBKTNV-1">
          <mxGeometry x="757.5" y="410" width="135" height="35" as="geometry" />
        </mxCell>
        <mxCell id="-Z8fcexckgJn7ujzZ2Ft-24" value="" style="rounded=0;whiteSpace=wrap;html=1;fillColor=#fff2cc;strokeColor=#d6b656;" vertex="1" parent="WIyWlLk6GJQsqaUBKTNV-1">
          <mxGeometry x="757.5" y="480" width="135" height="35" as="geometry" />
        </mxCell>
        <mxCell id="-Z8fcexckgJn7ujzZ2Ft-25" value="" style="shape=dataStorage;whiteSpace=wrap;html=1;fixedSize=1;rotation=-180;" vertex="1" parent="WIyWlLk6GJQsqaUBKTNV-1">
          <mxGeometry x="160" y="310" width="95" height="40" as="geometry" />
        </mxCell>
        <mxCell id="-Z8fcexckgJn7ujzZ2Ft-26" value="" style="shape=dataStorage;whiteSpace=wrap;html=1;fixedSize=1;rotation=-180;" vertex="1" parent="WIyWlLk6GJQsqaUBKTNV-1">
          <mxGeometry x="490" y="310" width="97.5" height="40" as="geometry" />
        </mxCell>
        <mxCell id="-Z8fcexckgJn7ujzZ2Ft-27" value="" style="shape=dataStorage;whiteSpace=wrap;html=1;fixedSize=1;rotation=-180;" vertex="1" parent="WIyWlLk6GJQsqaUBKTNV-1">
          <mxGeometry x="777.5" y="310" width="95" height="40" as="geometry" />
        </mxCell>
        <mxCell id="-Z8fcexckgJn7ujzZ2Ft-28" value="&lt;font color=&quot;#4d61ff&quot;&gt;Cloud Nat&lt;/font&gt;" style="text;html=1;strokeColor=none;fillColor=none;align=center;verticalAlign=middle;whiteSpace=wrap;rounded=0;" vertex="1" parent="WIyWlLk6GJQsqaUBKTNV-1">
          <mxGeometry x="180" y="315" width="60" height="30" as="geometry" />
        </mxCell>
        <mxCell id="-Z8fcexckgJn7ujzZ2Ft-29" value="&lt;font color=&quot;#4d61ff&quot;&gt;Cloud Nat&lt;/font&gt;" style="text;html=1;strokeColor=none;fillColor=none;align=center;verticalAlign=middle;whiteSpace=wrap;rounded=0;" vertex="1" parent="WIyWlLk6GJQsqaUBKTNV-1">
          <mxGeometry x="510" y="315" width="61.25" height="30" as="geometry" />
        </mxCell>
        <mxCell id="-Z8fcexckgJn7ujzZ2Ft-30" value="&lt;font color=&quot;#4d61ff&quot;&gt;Cloud Nat&lt;/font&gt;" style="text;html=1;strokeColor=none;fillColor=none;align=center;verticalAlign=middle;whiteSpace=wrap;rounded=0;" vertex="1" parent="WIyWlLk6GJQsqaUBKTNV-1">
          <mxGeometry x="800" y="315" width="60" height="30" as="geometry" />
        </mxCell>
        <mxCell id="-Z8fcexckgJn7ujzZ2Ft-31" value="&lt;b id=&quot;docs-internal-guid-81e7ec77-7fff-8a62-a631-0a5c4abc258c&quot; style=&quot;font-weight:normal;&quot;&gt;&lt;img src=&quot;https://lh6.googleusercontent.com/EI0MRk0nzkvpMwtFPFXoAt7pnuFs0Gu7lzOpw3dwjhvq_D6r6BR9Ah21X3YqFXRrCR4iKXEn59H-Iu3LHncwuWP9FxuJ--4_uWrT4gUF58XK2E_7dLZ4A3icM2lVJHEgxqWy_rC7nlZeSfNST37TVTD9dA=s2048&quot; height=&quot;36px;&quot; width=&quot;36px;&quot;&gt;&lt;/b&gt;" style="text;whiteSpace=wrap;html=1;" vertex="1" parent="WIyWlLk6GJQsqaUBKTNV-1">
          <mxGeometry x="135" y="305" width="60" height="50" as="geometry" />
        </mxCell>
        <mxCell id="-Z8fcexckgJn7ujzZ2Ft-32" value="&lt;b id=&quot;docs-internal-guid-81e7ec77-7fff-8a62-a631-0a5c4abc258c&quot; style=&quot;font-weight:normal;&quot;&gt;&lt;img src=&quot;https://lh6.googleusercontent.com/EI0MRk0nzkvpMwtFPFXoAt7pnuFs0Gu7lzOpw3dwjhvq_D6r6BR9Ah21X3YqFXRrCR4iKXEn59H-Iu3LHncwuWP9FxuJ--4_uWrT4gUF58XK2E_7dLZ4A3icM2lVJHEgxqWy_rC7nlZeSfNST37TVTD9dA=s2048&quot; height=&quot;36px;&quot; width=&quot;36px;&quot;&gt;&lt;/b&gt;" style="text;whiteSpace=wrap;html=1;" vertex="1" parent="WIyWlLk6GJQsqaUBKTNV-1">
          <mxGeometry x="470" y="305" width="60" height="50" as="geometry" />
        </mxCell>
        <mxCell id="-Z8fcexckgJn7ujzZ2Ft-33" value="&lt;b id=&quot;docs-internal-guid-81e7ec77-7fff-8a62-a631-0a5c4abc258c&quot; style=&quot;font-weight:normal;&quot;&gt;&lt;img src=&quot;https://lh6.googleusercontent.com/EI0MRk0nzkvpMwtFPFXoAt7pnuFs0Gu7lzOpw3dwjhvq_D6r6BR9Ah21X3YqFXRrCR4iKXEn59H-Iu3LHncwuWP9FxuJ--4_uWrT4gUF58XK2E_7dLZ4A3icM2lVJHEgxqWy_rC7nlZeSfNST37TVTD9dA=s2048&quot; height=&quot;36px;&quot; width=&quot;36px;&quot;&gt;&lt;/b&gt;" style="text;whiteSpace=wrap;html=1;" vertex="1" parent="WIyWlLk6GJQsqaUBKTNV-1">
          <mxGeometry x="757.5" y="305" width="60" height="50" as="geometry" />
        </mxCell>
      </root>
    </mxGraphModel>
  </diagram>
</mxfile>
